<svg width="48" height="48" viewBox="0 0 48 48" fill="none" xmlns="http://www.w3.org/2000/svg">
<circle cx="16.7999" cy="30.8292" r="1.02545" fill="#0ACCDA"/>
<circle cx="16.7999" cy="13.0255" r="1.02545" fill="#0ACCDA"/>
<circle cx="20.2035" cy="13.0255" r="1.02545" fill="#0ACCDA"/>
<circle cx="31.2001" cy="30.8292" r="1.02545" fill="#0ACCDA"/>
<circle cx="31.2001" cy="22.8436" r="1.02545" fill="#0ACCDA"/>
<circle cx="24" cy="34.9744" r="1.02545" fill="#0ACCDA"/>
<rect x="16.7343" y="12" width="3.49091" height="2.48727" fill="#0ACCDA"/>
<rect x="15.7745" y="13.0474" width="1.74545" height="17.8036" fill="#0ACCDA"/>
<rect x="19.4838" y="13.0474" width="1.74545" height="17.8036" fill="#0ACCDA"/>
<rect x="30.48" y="22.7781" width="1.74545" height="8.07273" fill="#0ACCDA"/>
<rect x="24.3273" y="18.8074" width="1.74545" height="7.15636" fill="#0ACCDA"/>
<rect x="26.0727" y="22.4727" width="4.75636" height="3.49091" fill="#0ACCDA"/>
<rect x="27.6873" y="24.4363" width="3.70909" height="7.11273" fill="#0ACCDA"/>
<rect x="19.4838" y="29.1926" width="9.29455" height="3.75273" fill="#0ACCDA"/>
<rect x="21.6218" y="32.2036" width="4.84364" height="1.83273" fill="#0ACCDA"/>
<path d="M25.8109 20.0728L29.9563 22.2982L29.7818 23.1273H25.8109V20.0728Z" fill="#0ACCDA"/>
<rect x="17.258" y="14.0073" width="2.44364" height="17.5418" fill="#0ACCDA"/>
<rect x="17.1708" y="30.1963" width="8.37818" height="1.74545" transform="rotate(30 17.1708 30.1963)" fill="#0ACCDA"/>
<path d="M24.3303 17.7163L31.8884 22.08L31.0157 23.5916L24.3303 19.2218L24.3303 17.7163Z" fill="#0ACCDA"/>
<rect x="31.8354" y="31.6326" width="8.5289" height="1.74545" transform="rotate(150 31.8354 31.6326)" fill="#0ACCDA"/>
<rect x="1" y="1" width="46" height="46" rx="23" stroke="#0ACCDA" stroke-width="2"/>
</svg>
