<svg width="33" height="32" viewBox="0 0 33 32" fill="none" xmlns="http://www.w3.org/2000/svg">
<path fill-rule="evenodd" clip-rule="evenodd" d="M26.4775 6.02298C27.8856 7.42608 28.3247 9.12909 28.4157 11.0517C28.5281 13.0331 28.5281 18.9669 28.4157 20.9483C28.3193 22.8709 27.8803 24.5739 26.4775 25.977C25.0747 27.3855 23.3721 27.8246 21.4499 27.9157C19.4689 28.0281 13.5311 28.0281 11.5501 27.9157C9.62794 27.8193 7.93068 27.3801 6.52253 25.977C5.11439 24.5739 4.67535 22.8709 4.58433 20.9483C4.47189 18.9669 4.47189 13.0278 4.58433 11.0463C4.6807 9.12373 5.11439 7.42073 6.52253 6.01763C7.93068 4.61453 9.6333 4.17539 11.5501 4.08435C13.5311 3.97188 19.4689 3.97188 21.4499 4.08435C23.3721 4.18074 25.0747 4.61988 26.4775 6.02298ZM16.5008 12.5712C14.6072 12.5712 13.0722 14.1063 13.0722 15.9998C13.0722 17.8933 14.6072 19.4284 16.5008 19.4284C18.3943 19.4284 19.9293 17.8933 19.9293 15.9998C19.9293 14.1063 18.3943 12.5712 16.5008 12.5712ZM9.64362 15.9998C9.64362 12.2127 12.7137 9.14266 16.5008 9.14266C20.2879 9.14266 23.3579 12.2127 23.3579 15.9998C23.3579 19.7869 20.2879 22.8569 16.5008 22.8569C12.7137 22.8569 9.64362 19.7869 9.64362 15.9998ZM23.3579 10.857C24.3047 10.857 25.0722 10.0895 25.0722 9.14272C25.0722 8.19595 24.3047 7.42844 23.3579 7.42844C22.4111 7.42844 21.6436 8.19595 21.6436 9.14272C21.6436 10.0895 22.4111 10.857 23.3579 10.857Z" fill="white"/>
</svg>
