<svg width="414" height="529" viewBox="0 0 414 529" fill="none" xmlns="http://www.w3.org/2000/svg">
<path d="M310.03 147.232C286.003 149.385 258.77 151.826 235.381 168.372C194.657 197.283 224.802 271.874 226.105 275.035C226.407 275.771 226.939 276.356 227.591 276.732C228.282 277.131 229.111 277.294 229.945 277.149C231.561 276.866 232.764 275.496 232.838 273.857C232.86 273.359 235.254 223.698 251.843 196.656C257.625 187.241 277.276 184.119 298.081 180.813C317.136 177.784 338.735 174.352 355.399 165.371C392.028 145.573 388.457 103.248 388.416 102.824C388.258 101.171 386.964 99.8562 385.313 99.6744C383.663 99.4944 382.113 100.497 381.602 102.076C381.53 102.299 374.085 124.627 350.841 138.638C341.249 144.435 326.782 145.732 310.03 147.232Z" fill="white"/>
<path d="M374.206 202.338C375.936 202.125 377.246 200.673 377.279 198.93C377.312 197.187 376.06 195.686 374.339 195.407C370.799 194.835 287.441 181.75 269.105 213.508C256.467 235.398 259.141 252.362 261.093 264.749C261.86 269.607 262.521 273.802 261.872 276.684C259.954 284.96 247.529 294.745 242.906 297.819C241.574 298.702 241.01 300.377 241.535 301.886C241.82 302.702 242.384 303.357 243.092 303.766C243.694 304.114 244.403 304.284 245.136 304.222C246.779 304.083 285.476 300.519 294.062 274.266C297.362 264.31 296.744 255.283 296.197 247.319C295.351 234.982 294.742 226.07 308.136 217.993C323.795 208.597 373.704 202.399 374.206 202.338Z" fill="white"/>
<path d="M119.74 233.217C116.552 236.04 115.098 239.833 115.536 244.181C117.004 258.709 139.922 279.476 180.074 302.658C180.076 302.659 180.077 302.66 180.078 302.661C185.519 305.802 191.325 309.011 197.33 312.197C262.852 346.961 298.209 340.71 299.682 340.427C301.287 340.119 302.464 338.74 302.52 337.107C302.574 335.475 301.501 334.019 299.912 333.605C273.74 326.725 230.257 304.542 200.974 287.635C168.208 268.718 152.883 256.724 149.804 252.623C153.563 250.955 169.459 253.28 187.3 259.378C189.005 259.961 190.874 259.155 191.619 257.514C192.364 255.874 191.744 253.936 190.183 253.035C180.79 247.613 133.256 221.175 119.74 233.217Z" fill="white"/>
<path d="M346.435 336.645C333.194 329.001 316.808 328.387 316.116 328.364C314.512 328.313 313.081 329.358 312.638 330.901C312.198 332.442 312.862 334.089 314.251 334.892C314.532 335.056 342.362 351.428 335.671 368.867C329.957 383.945 288.363 389.707 272.817 390.655C271.138 390.757 269.769 392.039 269.558 393.707C269.376 395.127 270.078 396.486 271.278 397.179C271.488 397.3 271.713 397.401 271.95 397.477C274.949 398.448 345.548 420.807 359.981 380.517C368.844 355.836 357.505 343.037 346.435 336.645Z" fill="white"/>
<path d="M264.276 379.766C265.169 378.723 265.369 377.254 264.79 376.012L255.846 356.823C255.41 355.887 254.578 355.191 253.586 354.923C253.406 354.874 235.318 349.934 211.056 339.302C201.421 335.093 190.976 329.777 180.848 323.929C158.053 310.769 144.695 299.485 143.659 296.268C143.69 295.55 143.926 295.352 144.057 295.242C145.085 294.372 147.951 294.289 149.611 294.56C151.437 294.872 153.192 293.706 153.611 291.901C154.03 290.096 152.97 288.278 151.191 287.752C134.028 282.69 123.726 283.521 120.573 290.221C114.984 302.099 137.87 323.066 159.167 337.413C162.231 339.474 165.618 341.577 169.23 343.663C169.232 343.664 169.233 343.665 169.236 343.666C206.127 364.966 260.104 380.696 260.644 380.851C261.963 381.233 263.382 380.809 264.276 379.766Z" fill="white"/>
<path d="M137.009 338.717C138.574 338.633 139.89 337.519 140.234 335.991C140.579 334.463 139.858 332.914 138.488 332.146C136.438 331.033 118.24 321.594 110.479 332.169C108.155 335.327 107.342 338.967 108.063 342.99C110.074 354.214 124.674 368.623 152.687 387.039C155.998 389.224 159.421 391.337 162.863 393.325C199.712 414.6 231.19 417.39 232.513 417.499C233.796 417.605 235.031 416.999 235.733 415.92C236.435 414.842 236.489 413.466 235.874 412.336L223.584 389.793C223.158 389.011 222.446 388.423 221.606 388.143C221.471 388.099 207.978 383.641 188.366 375.611C184.656 374.091 180.209 371.841 175.153 368.922C156.987 358.434 138.495 343.8 135.741 339.62C135.896 339.223 136.234 338.803 137.009 338.717Z" fill="white"/>
<path d="M125.574 418.247C210.02 466.906 263.987 478.051 278.167 473.644C283.187 472.084 285.347 469.113 286.277 466.895C288.564 461.435 285.73 455.649 285.399 455.007C284.603 453.461 282.78 452.693 281.133 453.262C279.489 453.834 278.505 455.485 278.837 457.195C278.973 458.188 278.62 459.511 276.163 460.17C270.794 461.414 229.896 450.989 169.593 420.135C161.326 415.919 152.787 411.271 144.211 406.321C91.7543 376.035 57.5121 346.686 54.8908 339.589C58.4453 337.921 74.5981 341.3 90.4948 347.117C92.2859 347.773 94.2712 346.874 94.9613 345.096C95.6514 343.319 94.7956 341.326 93.0274 340.591C92.5885 340.411 91.1585 339.698 89.5007 338.87C64.8331 326.569 35.425 313.914 26.9007 325.361C24.3038 328.85 23.4556 332.888 24.3788 337.362C26.6393 348.308 39.5865 368.6 125.571 418.243C125.573 418.246 125.573 418.246 125.574 418.247Z" fill="white"/>
<path d="M293.211 485.872C292.336 484.632 290.766 484.097 289.321 484.543C289.119 484.604 268.768 490.548 226.115 476.311C209.817 470.805 181.542 456.458 142.072 433.671C102.529 410.84 65.8012 387.561 65.4344 387.328C63.907 386.345 61.9029 386.711 60.7962 388.135C59.6883 389.558 59.8442 391.59 61.1537 392.827C61.4915 393.147 95.5906 425.152 149.507 456.281C175.367 471.211 201.744 483.638 227.907 493.217C276.715 511.036 292.506 490.851 293.154 489.983C294.06 488.77 294.083 487.111 293.211 485.872Z" fill="white"/>
</svg>
