<svg width="41" height="41" viewBox="0 0 41 41" fill="none" xmlns="http://www.w3.org/2000/svg">
<g clip-path="url(#clip0)">
<path d="M20.1511 8.055C18.3028 9.35493 16.208 10.8284 15.0857 13.266C13.1362 17.5186 19.0749 22.1575 19.3287 22.3529C19.3877 22.3984 19.4582 22.421 19.5287 22.421C19.6034 22.421 19.6783 22.3954 19.7392 22.3445C19.8571 22.2459 19.8905 22.0784 19.8197 21.942C19.7982 21.9006 17.6665 17.76 17.7457 14.7894C17.7738 13.7549 19.2217 12.5813 20.7545 11.3387C22.1584 10.2006 23.7498 8.91061 24.6809 7.40163C26.725 4.08007 24.4531 0.813979 24.4299 0.781455C24.3397 0.654767 24.1731 0.608734 24.0307 0.671291C23.8884 0.733979 23.8096 0.887946 23.8421 1.03995C23.8467 1.06145 24.2885 3.22132 23.0591 5.44649C22.5525 6.36596 21.4397 7.14878 20.1511 8.055Z" fill="white"/>
<path d="M27.9379 9.5195C28.0683 9.42127 28.1066 9.24212 28.0276 9.09917C27.9487 8.95622 27.7768 8.89314 27.6241 8.95111C27.3101 9.07045 19.9353 11.9131 19.9353 15.3479C19.9353 17.7155 20.9467 18.9664 21.6852 19.8799C21.9749 20.238 22.225 20.5474 22.3074 20.8115C22.5394 21.5727 21.9898 22.9484 21.7587 23.4143C21.692 23.5483 21.7247 23.7105 21.838 23.8084C21.8993 23.8612 21.9757 23.888 22.0523 23.888C22.1175 23.888 22.1829 23.8686 22.2395 23.8292C22.3663 23.741 25.3385 21.6396 24.8054 19.1078C24.6068 18.1456 24.1339 17.4424 23.7166 16.8219C23.0701 15.8607 22.6033 15.1663 23.3116 13.8838C24.1417 12.3882 27.9 9.54796 27.9379 9.5195Z" fill="white"/>
<path d="M8.74128 23.9425C8.61485 24.3209 8.67453 24.6966 8.91374 25.0288C9.71321 26.1386 12.5449 26.7499 16.8877 26.7499C16.888 26.7499 16.8881 26.7499 16.8883 26.7499C17.4767 26.7499 18.098 26.7383 18.7343 26.7155C25.6776 26.4668 28.2529 24.3038 28.3592 24.2119C28.475 24.1117 28.5059 23.9447 28.4339 23.8097C28.3619 23.6747 28.2067 23.6069 28.0583 23.6477C25.6131 24.3154 21.0468 24.5524 17.8796 24.5524C14.3356 24.5524 12.5308 24.2971 12.0889 24.1087C12.3157 23.7973 13.7141 23.2414 15.447 22.9005C15.6126 22.868 15.7264 22.7151 15.71 22.5471C15.6936 22.3791 15.5525 22.251 15.3837 22.251C14.3679 22.2511 9.27374 22.3327 8.74128 23.9425Z" fill="white"/>
<path d="M31.975 21.7148C30.5429 21.7148 29.1849 22.4325 29.1277 22.463C28.9952 22.534 28.9281 22.6859 28.9644 22.8317C29.0009 22.9774 29.1319 23.0798 29.2822 23.08C29.3126 23.0801 32.337 23.1047 32.611 24.8327C32.8536 26.3235 29.7493 28.739 28.5327 29.5439C28.4013 29.6309 28.3502 29.799 28.4112 29.9442C28.463 30.0679 28.5836 30.1452 28.7134 30.1452C28.7361 30.1452 28.759 30.1429 28.7819 30.1379C29.0706 30.0763 35.8448 28.5835 35.1286 24.6393C34.6916 22.2221 33.1724 21.7148 31.975 21.7148Z" fill="white"/>
<path d="M27.3294 29.0618C27.353 28.9354 27.3004 28.8069 27.1952 28.7332L25.571 27.5955C25.4918 27.54 25.3917 27.5225 25.2987 27.5472C25.2818 27.5517 23.5832 27.9981 21.1171 28.2719C20.1383 28.3817 19.0421 28.4397 17.9466 28.4397C15.4812 28.4397 13.8691 28.1499 13.6344 27.9375C13.6033 27.8778 13.6131 27.8507 13.6186 27.8356C13.6613 27.7169 13.8898 27.5759 14.0373 27.5202C14.2 27.46 14.2877 27.2832 14.2371 27.1172C14.1866 26.9511 14.0155 26.8533 13.8466 26.894C12.2172 27.2871 11.4205 27.837 11.4784 28.5282C11.5814 29.7535 14.4198 30.3825 16.8194 30.5489C17.1645 30.5725 17.5377 30.5846 17.9284 30.5846C17.9287 30.5846 17.9288 30.5846 17.929 30.5846C21.9192 30.5846 27.0345 29.3326 27.0856 29.3199C27.2105 29.2891 27.3057 29.1882 27.3294 29.0618Z" fill="white"/>
<path d="M15.0837 31.6922C15.2067 31.6121 15.2613 31.4601 15.2176 31.32C15.174 31.18 15.043 31.088 14.8959 31.0899C14.6775 31.0956 12.7592 31.1822 12.6249 32.4036C12.5843 32.7686 12.6888 33.1019 12.9358 33.3945C13.6245 34.2108 15.4837 34.6959 18.6186 34.8778C18.9895 34.9 19.3662 34.9111 19.7385 34.9111C23.7241 34.9111 26.4082 33.6632 26.5206 33.6101C26.6296 33.5586 26.7015 33.4516 26.7079 33.3312C26.7143 33.2109 26.6543 33.0967 26.5515 33.0339L24.4987 31.7808C24.4275 31.7373 24.3423 31.7229 24.261 31.7396C24.248 31.7423 22.9446 32.0126 20.9777 32.2798C20.6055 32.3303 20.1394 32.356 19.5925 32.356C17.6277 32.356 15.4422 32.0349 15.0231 31.8248C15.0171 31.7853 15.0248 31.7355 15.0837 31.6922Z" fill="white"/>
<path d="M17.8811 38.6783C27.0102 38.6706 31.91 37.0471 32.8539 36.0255C33.188 35.6639 33.2241 35.3217 33.1956 35.0982C33.1255 34.5482 32.6246 34.2116 32.5677 34.175C32.4307 34.0868 32.2468 34.1099 32.1399 34.2332C32.0333 34.3566 32.0308 34.5367 32.1378 34.6598C32.1954 34.7339 32.2287 34.8578 32.0603 35.0264C31.683 35.3788 27.8771 36.4485 21.5403 36.7698C20.6723 36.8151 19.7618 36.8379 18.8344 36.838C13.1607 36.838 9.00843 36.061 8.46338 35.608C8.67361 35.3062 10.1422 34.8239 11.7042 34.5512C11.8802 34.5205 11.9991 34.3546 11.9718 34.1781C11.9445 34.0016 11.7818 33.88 11.604 33.9032C11.5599 33.9091 11.4105 33.9183 11.2373 33.9288C8.6601 34.0862 5.68188 34.437 5.52647 35.7647C5.47926 36.1695 5.59952 36.5367 5.88398 36.8564C6.57998 37.6384 8.58062 38.6782 17.8807 38.6782C17.8809 38.6783 17.8809 38.6783 17.8811 38.6783Z" fill="white"/>
<path d="M34.647 36.3135C34.518 36.2539 34.3656 36.284 34.2692 36.3879C34.2557 36.4023 32.8832 37.8376 28.7564 38.6804C27.1765 38.997 24.2109 39.1575 19.9419 39.1575C15.6649 39.1575 11.5953 38.9892 11.5546 38.9875C11.3847 38.9792 11.2392 39.1028 11.2162 39.2701C11.1929 39.4375 11.3007 39.595 11.4649 39.6341C11.5073 39.6442 15.7723 40.6434 21.6039 40.6434C24.4009 40.6434 27.1226 40.4161 29.6936 39.9678C34.4874 39.1274 34.823 36.7504 34.835 36.6497C34.8516 36.5088 34.7758 36.3732 34.647 36.3135Z" fill="white"/>
</g>
<defs>
<clipPath id="clip0">
<rect width="40" height="40" fill="white" transform="translate(0.349182 0.643555)"/>
</clipPath>
</defs>
</svg>
