<svg width="166" height="244" viewBox="0 0 166 244" fill="none" xmlns="http://www.w3.org/2000/svg">
<path d="M142.827 67.9483C131.802 68.9361 119.306 70.0561 108.573 77.6485C89.8866 90.9147 103.719 125.141 104.317 126.592C104.456 126.929 104.7 127.198 104.999 127.37C105.316 127.554 105.696 127.628 106.079 127.562C106.821 127.432 107.373 126.803 107.406 126.051C107.417 125.823 108.515 103.035 116.127 90.6269C118.78 86.3069 127.797 84.8742 137.344 83.3569C146.087 81.9674 155.998 80.3926 163.645 76.2716C180.452 67.1867 178.814 47.766 178.795 47.5711C178.722 46.8127 178.129 46.2094 177.371 46.1259C176.614 46.0434 175.902 46.5035 175.668 47.228C175.635 47.3305 172.219 57.5758 161.553 64.0047C157.152 66.6646 150.513 67.2601 142.827 67.9483Z" fill="#171729" fill-opacity="0.2"/>
<path d="M172.274 93.2336C173.068 93.1361 173.669 92.4699 173.684 91.6701C173.7 90.8702 173.125 90.1815 172.335 90.0535C170.711 89.7908 132.461 83.7868 124.048 98.359C118.249 108.403 119.476 116.187 120.371 121.871C120.723 124.101 121.026 126.026 120.729 127.348C119.849 131.145 114.147 135.636 112.026 137.046C111.415 137.451 111.156 138.22 111.397 138.912C111.527 139.286 111.786 139.587 112.111 139.775C112.388 139.934 112.713 140.012 113.049 139.984C113.803 139.92 131.56 138.285 135.499 126.238C137.014 121.67 136.73 117.528 136.479 113.874C136.091 108.213 135.811 104.123 141.957 100.417C149.143 96.1056 172.044 93.2615 172.274 93.2336Z" fill="#171729" fill-opacity="0.2"/>
<path d="M55.5103 107.403C54.0472 108.698 53.3801 110.438 53.5812 112.434C54.2547 119.1 64.7709 128.629 83.1949 139.266C83.196 139.267 83.1966 139.267 83.1971 139.268C85.6936 140.709 88.3575 142.182 91.1129 143.644C121.179 159.595 137.402 156.727 138.078 156.597C138.815 156.456 139.355 155.823 139.38 155.074C139.406 154.325 138.913 153.657 138.184 153.467C126.175 150.31 106.222 140.131 92.7853 132.373C77.7502 123.693 70.7184 118.189 69.3055 116.307C71.0301 115.542 78.3245 116.609 86.5109 119.407C87.2932 119.675 88.1507 119.305 88.4927 118.552C88.8346 117.799 88.5498 116.91 87.8337 116.496C83.5237 114.009 61.7123 101.877 55.5103 107.403Z" fill="#171729" fill-opacity="0.2"/>
<path d="M159.531 154.862C153.455 151.354 145.936 151.072 145.619 151.062C144.883 151.038 144.226 151.518 144.023 152.226C143.821 152.933 144.126 153.689 144.763 154.057C144.892 154.132 157.662 161.645 154.592 169.647C151.97 176.565 132.884 179.209 125.751 179.644C124.98 179.691 124.352 180.28 124.255 181.045C124.172 181.697 124.494 182.32 125.045 182.638C125.141 182.694 125.244 182.74 125.353 182.775C126.729 183.22 159.124 193.48 165.747 174.993C169.813 163.668 164.611 157.794 159.531 154.862Z" fill="#171729" fill-opacity="0.2"/>
<path d="M121.832 174.649C122.242 174.17 122.333 173.496 122.068 172.926L117.964 164.121C117.763 163.691 117.382 163.372 116.927 163.249C116.844 163.227 108.544 160.96 97.4114 156.081C92.9903 154.15 88.1975 151.711 83.55 149.027C73.0906 142.989 66.9611 137.811 66.4856 136.335C66.4999 136.005 66.6081 135.914 66.6684 135.864C67.1399 135.465 68.455 135.426 69.2169 135.551C70.0549 135.694 70.8601 135.159 71.052 134.331C71.2445 133.503 70.758 132.669 69.9418 132.427C62.0663 130.104 57.3394 130.486 55.8924 133.56C53.3279 139.01 63.8291 148.631 73.6016 155.215C75.0076 156.16 76.5615 157.125 78.219 158.082C78.2201 158.083 78.2207 158.083 78.2218 158.084C95.1497 167.857 119.917 175.075 120.165 175.147C120.771 175.322 121.422 175.127 121.832 174.649Z" fill="#171729" fill-opacity="0.2"/>
<path d="M63.4341 155.812C64.1523 155.774 64.756 155.263 64.9138 154.561C65.0722 153.86 64.7415 153.15 64.1128 152.797C63.1723 152.287 54.822 147.955 51.2607 152.808C50.1942 154.257 49.8211 155.927 50.1521 157.773C51.0749 162.923 57.774 169.535 70.6282 177.985C72.1474 178.988 73.718 179.958 75.2976 180.87C92.206 190.632 106.65 191.912 107.257 191.962C107.846 192.011 108.413 191.733 108.735 191.238C109.057 190.743 109.081 190.111 108.799 189.593L103.16 179.249C102.964 178.89 102.638 178.62 102.252 178.492C102.19 178.472 95.9989 176.426 87 172.742C85.2973 172.044 83.2569 171.012 80.9368 169.672C72.6011 164.859 64.1159 158.144 62.8523 156.226C62.9234 156.044 63.0783 155.852 63.4341 155.812Z" fill="#171729" fill-opacity="0.2"/>
<path d="M58.1869 192.305C96.9357 214.633 121.699 219.747 128.206 217.725C130.509 217.009 131.5 215.646 131.927 214.628C132.976 212.123 131.676 209.468 131.524 209.173C131.159 208.464 130.322 208.111 129.567 208.373C128.812 208.635 128.361 209.393 128.513 210.177C128.576 210.633 128.413 211.24 127.286 211.543C124.822 212.113 106.056 207.33 78.3856 193.172C74.5921 191.238 70.6738 189.104 66.7388 186.833C42.6685 172.936 26.9562 159.469 25.7534 156.213C27.3844 155.447 34.7963 156.998 42.0906 159.667C42.9124 159.968 43.8234 159.556 44.1401 158.74C44.4567 157.924 44.064 157.01 43.2527 156.673C43.0513 156.59 42.3951 156.263 41.6344 155.883C30.3155 150.238 16.8213 144.432 12.9099 149.684C11.7183 151.285 11.329 153.138 11.7527 155.191C12.7899 160.213 18.7308 169.525 58.1856 192.304C58.1864 192.305 58.1864 192.305 58.1869 192.305Z" fill="#171729" fill-opacity="0.2"/>
<path d="M135.109 223.336C134.708 222.767 133.987 222.521 133.324 222.726C133.231 222.754 123.893 225.481 104.322 218.949C96.8433 216.422 83.8687 209.839 65.7578 199.383C47.6131 188.907 30.7601 178.225 30.5918 178.118C29.891 177.667 28.9714 177.835 28.4635 178.488C27.9552 179.141 28.0267 180.073 28.6276 180.641C28.7826 180.788 44.4293 195.474 69.1694 209.757C81.0353 216.608 93.1386 222.31 105.144 226.706C127.54 234.883 134.786 225.62 135.083 225.222C135.499 224.665 135.509 223.904 135.109 223.336Z" fill="#171729" fill-opacity="0.2"/>
</svg>
