<svg width="33" height="32" viewBox="0 0 33 32" fill="none" xmlns="http://www.w3.org/2000/svg">
<path fill-rule="evenodd" clip-rule="evenodd" d="M15.653 15.6195C15.8657 15.4773 16.0786 15.3348 16.2923 15.1924C16.4228 15.0997 16.5533 15.0066 16.6838 14.9136C17.2057 14.5413 17.7276 14.1691 18.2495 13.8189C18.5787 13.5894 18.9058 13.3571 19.2327 13.1248C20.0312 12.5575 20.8293 11.9905 21.6576 11.4667C21.9494 11.2865 22.2499 11.1062 22.5761 11.0032L22.5837 11.0007C22.7106 10.9583 22.853 10.9108 22.9624 11.0118C23.0695 11.1112 23.0335 11.2379 23 11.3554C22.9959 11.3698 22.9919 11.384 22.9881 11.3981C22.9538 11.5354 22.8937 11.6556 22.7907 11.7672C21.5574 13.0977 20.2135 14.3175 18.8666 15.54C18.6666 15.7216 18.4665 15.9031 18.2667 16.0852L18.2152 16.1109C17.9552 16.3545 17.697 16.5972 17.4394 16.8393C16.8889 17.3566 16.3414 17.8712 15.7858 18.3858C15.348 18.7893 14.9875 19.2442 14.8072 19.828C14.6441 20.3688 14.7814 21.0212 15.348 21.3904C15.7508 21.65 16.1438 21.9261 16.537 22.2024C16.7808 22.3736 17.0246 22.5448 17.2709 22.7124C17.9806 23.1931 18.6912 23.6729 19.4019 24.1527C20.823 25.1122 22.2442 26.0718 23.6577 27.0389C24.8853 27.8802 26.6022 27.2106 26.8941 25.7598C26.9593 25.4597 27.0097 25.1547 27.0602 24.8485C27.0762 24.7517 27.0922 24.6549 27.1087 24.558C27.2761 23.5794 27.4413 22.6029 27.6066 21.6264C27.7718 20.6499 27.9371 19.6735 28.1045 18.6948C28.1645 18.3515 28.2225 18.0104 28.2804 17.6692C28.3384 17.3279 28.3963 16.9866 28.4564 16.6432C28.4607 16.6131 28.4629 16.5809 28.465 16.5487C28.4672 16.5165 28.4693 16.4843 28.4736 16.4543C28.4873 16.3701 28.5009 16.2861 28.5146 16.2022C28.6124 15.6012 28.7094 15.0052 28.7998 14.4026C29.023 12.9347 29.2376 11.4753 29.4522 10.016C29.5724 9.2262 29.6754 8.43644 29.7441 7.64667C29.7784 7.28612 29.8042 6.91699 29.8299 6.54786C29.8557 6.17873 29.7355 5.87827 29.4694 5.63791C29.1432 5.34604 28.7311 5.32029 28.3191 5.33745C27.8126 5.36321 27.3147 5.47481 26.834 5.65508C25.7609 6.06713 24.6965 6.47919 23.632 6.89982C20.7991 8.03297 17.9748 9.1747 15.1677 10.3508C13.9917 10.8401 12.8242 11.3294 11.6567 11.8273C11.1703 12.0333 10.6838 12.247 10.1974 12.4606C9.95416 12.5674 9.71091 12.6743 9.46766 12.7802C9.20893 12.8949 8.95019 13.0079 8.69171 13.1208C8.11833 13.3713 7.54621 13.6213 6.97818 13.8876C5.94805 14.3597 4.91791 14.849 3.92212 15.3984C3.91322 15.4034 3.9043 15.4084 3.89537 15.4134C3.68909 15.5287 3.47755 15.647 3.32121 15.8362C3.11518 16.0766 3.11518 16.2912 3.32121 16.5316C3.44997 16.6775 3.61308 16.7977 3.78477 16.8835C5.4759 17.7248 7.23571 18.3686 9.10712 18.6519C10.0428 18.7978 10.927 18.6176 11.7511 18.1111C12.0518 17.9219 12.3566 17.7366 12.6616 17.5512C13.1315 17.2656 13.6023 16.9794 14.0603 16.6775C14.5935 16.3282 15.1223 15.9745 15.653 15.6195Z" fill="white"/>
</svg>
